<svg width="1251" height="358" viewBox="0 0 1251 358" fill="none" xmlns="http://www.w3.org/2000/svg">
<path d="M0 19C13.6 20.2 89.3333 19.5 125.5 19L208 236.5H216.5L197.5 187.5L259 19H388.5V112.5H447V19H551V133C539 140.5 440.5 143 460 299H447V205H388.5V299H285.5V285.5L265.5 331H121L0 19Z" fill="black"/>
<path d="M551 334.499H471V223C477.799 153 540.166 142.166 570.5 145.5C571.163 145.593 570.512 146.836 570.525 147.5C571.973 220.086 630.602 252.063 660 259V334.499H578.5V237.499C578.5 217.999 551 218.5 551 237.499V334.499Z" fill="black"/>
<path d="M680 57.5C727.852 57.5 767.693 90.7477 776.283 134.713C761.06 136.246 747.387 146.017 737.329 161H694.215C695.979 158.243 697 154.987 697 151.5C697 141.559 688.717 133.5 678.5 133.5C668.283 133.5 660 141.559 660 151.5C660 161.441 668.283 169.5 678.5 169.5C681.132 169.5 683.635 168.964 685.902 168H733.1C724.899 183.103 720 202.214 720 223C720 228.402 720.331 233.69 720.965 238.825C720.913 238.848 720.86 238.87 720.808 238.894L721.5 246.5L697 247.5L687.739 247.205C685.186 247.399 682.605 247.5 680 247.5C675.182 247.5 670.445 247.161 665.813 246.51L665.5 246.5L665.562 246.474C618.284 239.706 582 200.212 582 152.5C582 100.033 625.876 57.5 680 57.5Z" fill="black"/>
<path d="M831 130.5C878.852 130.5 918.693 163.748 927.283 207.713C925.783 207.864 924.298 208.096 922.83 208.404L915.136 182.5H830L837.677 208.351C835.211 207.166 832.436 206.5 829.5 206.5C819.283 206.5 811 214.559 811 224.5C811 234.441 819.283 242.5 829.5 242.5C832.132 242.5 834.635 241.964 836.902 241H847.374L870.708 319.572L848 320.5L838.739 320.205C836.186 320.399 833.605 320.5 831 320.5C826.182 320.5 821.445 320.161 816.813 319.51L816.5 319.5L816.562 319.474C769.284 312.706 733 273.212 733 225.5C733 173.033 776.876 130.5 831 130.5Z" fill="black"/>
<path d="M1077 237.5C1077 184 1123 188 1145.5 188H1248V252.5H1232H1232H1163V252.554C1152.38 253.303 1144 261.947 1144 272.5C1144 283.545 1153.18 292.5 1164.5 292.5C1175.82 292.5 1185 283.545 1185 272.5C1185 265.957 1181.78 260.149 1176.8 256.5H1232V256.369C1241.07 263.225 1256.25 282.796 1248 309.5C1243.37 324.5 1232.3 356.2 1181.5 357C1130.7 357.8 1090.67 357.333 1077 357V295H1110.5V288H1090C1079.5 271.5 1077.33 248.333 1077 237.5Z" fill="black"/>
<path d="M908 192.5L934 270L960.5 192.5H1014.5L1041.5 270L1068 192.5H1084.38C1074.72 201.151 1068 214.867 1068 236.357C1068.35 247.77 1069.48 271.62 1080.5 289.001H1068V353.5H1007L980.5 278.5H976.5L985.5 305.5L969 353.5H897.5L843.5 192.5H908Z" fill="black"/>
<path d="M885.804 65.2054L893.636 69.639L893.983 69.8353L893.868 70.2181L884.86 100.193L906.868 77.558L907.137 77.2816L907.473 77.4711L915.618 82.0824L915.958 82.2748L915.854 82.6517L907.48 112.743L928.475 89.8051L928.743 89.5121L929.09 89.7074L936.975 94.1703L937.548 94.4955L937.081 94.9603L906.269 125.643L906 125.911L905.669 125.724L897.054 120.847L896.719 120.658L896.816 120.285L904.193 92.2552L883.66 112.844L883.394 113.112L883.063 112.927L874.47 108.132L874.133 107.945L874.23 107.571L885.073 65.516L885.235 64.8842L885.804 65.2054ZM807.373 64.2992L823.715 105.944L823.898 106.409L823.433 106.591L815.092 109.865L814.842 109.963L814.621 109.808L785.897 89.6361L796.488 116.628L796.671 117.093L796.206 117.276L787.865 120.549L787.399 120.732L787.217 120.266L770.874 78.6224L770.691 78.1566L771.157 77.974L779.498 74.7006L779.748 74.6029L779.969 74.7572L808.715 94.9847L798.101 67.9379L797.918 67.472L798.384 67.2894L806.725 64.016L807.19 63.8334L807.373 64.2992ZM860.836 61.764V70.0599H843.876V80.2601H858.916V88.3636H843.876V99.2045H860.836V107.5H833.916V61.764H860.836Z" fill="black" stroke="black"/>
<path d="M926.403 151.214C924.403 148.229 923.071 145.163 922.406 142.015C921.77 138.909 921.881 135.969 922.74 133.197C923.6 130.424 925.235 128.077 927.647 126.154L933.812 135.355C932.256 136.742 931.371 138.355 931.158 140.194C930.973 142.074 931.538 143.995 932.853 145.958C934.196 147.962 935.689 149.198 937.333 149.666C939.015 150.106 940.58 149.766 942.028 148.649C943.209 147.738 943.92 146.599 944.162 145.234C944.403 143.869 944.336 142.432 943.961 140.923C943.651 139.425 943.078 137.448 942.241 134.992C941.14 131.623 940.362 128.781 939.908 126.464C939.519 124.158 939.643 121.798 940.279 119.384C940.982 116.981 942.59 114.809 945.105 112.869C947.468 111.046 949.95 110.091 952.553 110.006C955.155 109.921 957.681 110.671 960.13 112.255C962.617 113.81 964.847 116.059 966.82 119.003C969.78 123.42 971.168 127.777 970.984 132.075C970.866 136.384 969.112 140.064 965.721 143.114L959.391 133.669C960.708 132.528 961.408 131.027 961.49 129.165C961.637 127.315 961.067 125.428 959.779 123.506C958.655 121.83 957.351 120.789 955.865 120.385C954.408 120.021 952.916 120.427 951.392 121.603C950.325 122.426 949.676 123.485 949.446 124.78C949.28 126.086 949.339 127.468 949.622 128.925C949.97 130.393 950.543 132.37 951.341 134.856C952.443 138.224 953.201 141.082 953.618 143.428C954.034 145.774 953.904 148.169 953.23 150.613C952.555 153.057 950.979 155.234 948.502 157.146C946.368 158.792 943.989 159.729 941.365 159.954C938.742 160.18 936.11 159.574 933.47 158.137C930.869 156.67 928.513 154.363 926.403 151.214Z" fill="black"/>
<path d="M886.5 3.5L888.5 18.25L890.5 33" stroke="black" stroke-width="6" stroke-linecap="round"/>
<path d="M932.601 11.774L929 28L925.399 44.226" stroke="black" stroke-width="6" stroke-linecap="round"/>
<path d="M984.011 28L966.82 45.6472L949.629 63.2945" stroke="black" stroke-width="6" stroke-linecap="round"/>
<path d="M1032.69 104.71L1008.57 109.729L984.452 114.747" stroke="black" stroke-width="6" stroke-linecap="round"/>
<circle cx="891" cy="46" r="3.5" fill="black" stroke="black"/>
<path d="M968.53 86.6392L981.393 79.1496L994.257 71.6601" stroke="black" stroke-width="6" stroke-linecap="round"/>
<circle cx="1006.08" cy="66.2258" r="3.5" transform="rotate(-112.488 1006.08 66.2258)" fill="black" stroke="black"/>
</svg>
